<svg width="26" height="26" viewBox="0 0 26 26" fill="none" xmlns="http://www.w3.org/2000/svg">
<path d="M8.17648 23.5632C17.9878 23.5632 23.3542 15.4346 23.3542 8.38548C23.3542 8.1546 23.3542 7.92476 23.3386 7.69596C24.3826 6.94083 25.2838 6.00584 26 4.93476C25.0265 5.36636 23.9937 5.64928 22.9362 5.77404C24.0498 5.10746 24.8833 4.05889 25.2814 2.82356C24.2343 3.44497 23.0887 3.88287 21.8941 4.11836C21.0898 3.26315 20.0261 2.69686 18.8675 2.5071C17.709 2.31735 16.5202 2.51472 15.4851 3.06867C14.4501 3.62262 13.6264 4.50227 13.1416 5.57149C12.6569 6.64071 12.538 7.8399 12.8034 8.98348C10.6826 8.8771 8.6079 8.32593 6.71391 7.36577C4.81992 6.4056 3.14899 5.05789 1.8096 3.41012C1.12746 4.58445 0.918528 5.97462 1.22536 7.29758C1.53219 8.62054 2.3317 9.77682 3.46112 10.531C2.61217 10.5061 1.7817 10.2771 1.04 9.86332V9.93092C1.04034 11.1625 1.46667 12.3561 2.24669 13.3092C3.02672 14.2622 4.1124 14.9162 5.3196 15.16C4.53427 15.3743 3.71028 15.4056 2.91096 15.2516C3.25197 16.3114 3.91563 17.2382 4.80918 17.9024C5.70272 18.5666 6.78148 18.935 7.89464 18.956C6.78864 19.8254 5.52209 20.4681 4.16745 20.8475C2.8128 21.2269 1.39665 21.3355 0 21.1671C2.43949 22.7325 5.27792 23.5629 8.17648 23.5591" fill="white"/>
</svg>
