<svg width="26" height="26" viewBox="0 0 26 26" fill="none" xmlns="http://www.w3.org/2000/svg">
<path d="M13.2311 2.39763C15.443 2.39763 17.576 3.22712 19.1165 4.7676C20.6965 6.30809 21.5655 8.32257 21.5655 10.495V23.8854H4.89665V10.495C4.89665 8.32257 5.76564 6.30809 7.34563 4.7676C8.88611 3.22712 10.9796 2.39763 13.2311 2.39763ZM13.2311 1.96313C10.9006 1.96313 8.68861 2.83213 7.02963 4.45161C5.37065 6.07109 4.46216 8.20407 4.46216 10.495V24.3199H22V10.495C22 8.20407 21.0915 6.07109 19.4325 4.49111C17.7735 2.83213 15.5615 1.96313 13.2311 1.96313V1.96313Z" fill="white"/>
<path d="M18.3913 5.56352L17.9963 5.16852C16.6928 4.02304 15.0338 3.43054 13.2563 3.43054C11.3208 3.43054 9.46437 4.18103 8.12138 5.56352C6.7389 6.946 5.9884 8.76299 5.9884 10.6985V22.7853H20.5242V10.738C20.5242 8.76298 19.7343 6.946 18.3913 5.56352ZM16.1398 22.0348C15.4683 22.2718 14.7178 22.3903 13.9673 22.3903H8.71387V19.9809C8.59538 19.8624 8.47688 19.7044 8.39788 19.5859C7.48939 18.4009 7.01539 16.9394 7.01539 15.4384V10.896C7.01539 9.11848 7.68688 7.4595 8.87187 6.15601C9.02987 6.15601 9.22737 6.15601 9.42487 6.19551C10.6494 6.31401 12.3083 6.74851 13.7303 7.736C14.9943 8.60499 16.5348 10.185 16.5348 12.7524V21.9163C16.4163 21.9558 16.2978 21.9953 16.1398 22.0348Z" fill="white"/>
<path d="M13.7698 7.73599C12.3478 6.788 10.6888 6.314 9.46434 6.19551C9.26685 6.19551 9.06935 6.15601 8.91135 6.15601C7.72636 7.45949 7.05487 9.11847 7.05487 10.896V15.4384C7.05487 16.9394 7.52887 18.4009 8.43736 19.5859C8.55585 19.7044 8.63485 19.8624 8.75335 19.9809V22.3903H14.0068C14.7573 22.3903 15.4683 22.2718 16.1793 22.0348C16.3373 21.9953 16.4558 21.9558 16.6138 21.8768V12.7129C16.5743 10.1455 15.0338 8.60498 13.7698 7.73599ZM9.14835 21.9558V20.4154C9.85934 21.0868 10.6888 21.6398 11.5973 21.9558H9.14835ZM16.1398 21.6003C15.4683 21.8373 14.7178 21.9558 13.9673 21.9558C12.2293 21.9558 10.6098 21.2843 9.34585 20.0204L9.10885 19.7834C8.95085 19.6254 8.79285 19.4279 8.67435 19.2304C7.84486 18.1244 7.41037 16.7814 7.41037 15.3989V10.896C7.41037 9.31597 8.00286 7.77549 9.02985 6.5905C11.7948 6.709 16.1003 8.60498 16.1003 12.7129V21.6003H16.1398Z" fill="white"/>
<path d="M11.5709 16.6727C11.4524 16.6727 11.3339 16.5542 11.3339 16.4357V12.4067C11.3339 11.3402 12.2029 10.4712 13.2694 10.4712C14.3359 10.4712 15.2049 11.3402 15.2049 12.4067C15.2049 12.5252 15.0864 12.6437 14.9679 12.6437C14.8494 12.6437 14.7309 12.5252 14.7309 12.4067C14.7309 11.6167 14.0594 10.9452 13.2694 10.9452C12.4794 10.9452 11.8079 11.6167 11.8079 12.4067V16.4357C11.8079 16.5542 11.6894 16.6727 11.5709 16.6727Z" fill="white"/>
<path d="M13.9804 13.5522C13.8619 13.5522 13.7434 13.4337 13.7434 13.3152C13.7434 13.0387 13.5459 12.8412 13.2694 12.8412C12.9929 12.8412 12.7954 13.0387 12.7954 13.3152C12.7954 13.4337 12.6769 13.5522 12.5584 13.5522C12.4399 13.5522 12.3214 13.4337 12.3214 13.3152C12.3214 12.7622 12.7559 12.3277 13.3089 12.3277C13.8619 12.3277 14.2964 12.7622 14.2964 13.3152C14.2174 13.4337 14.0989 13.5522 13.9804 13.5522Z" fill="white"/>
<path d="M11.5709 16.6726C10.8599 16.6726 10.2674 16.0801 10.2674 15.3691C10.2674 15.2506 10.3859 15.1321 10.5044 15.1321C10.6229 15.1321 10.7414 15.2506 10.7414 15.3691C10.7414 15.8036 11.0969 16.1591 11.5314 16.1591C11.9659 16.1591 12.3214 15.8036 12.3214 15.3691C12.3214 15.2506 12.4399 15.1321 12.5584 15.1321C12.6769 15.1321 12.7954 15.2506 12.7954 15.3691C12.8349 16.0801 12.2819 16.6726 11.5709 16.6726Z" fill="white"/>
<path d="M10.1884 13.9472C10.1094 13.9472 10.0699 13.9077 10.0304 13.8682L8.96393 12.8017V13.7102C8.96393 13.8287 8.84544 13.9472 8.72694 13.9472C8.60844 13.9472 8.45044 13.8287 8.45044 13.6707V12.2092C8.45044 12.0907 8.52944 12.0117 8.60844 11.9722C8.72694 11.9327 8.80594 11.9327 8.88493 12.0117L9.95142 13.0782V12.4462C9.95142 12.3277 10.0699 12.2092 10.1884 12.2092C10.3069 12.2092 10.4254 12.3277 10.4254 12.4462V13.6707C10.4254 13.7892 10.3464 13.8682 10.2674 13.9077C10.2674 13.9472 10.2279 13.9472 10.1884 13.9472Z" fill="white"/>
<path d="M11.5314 12.6832C11.4129 12.6832 11.2944 12.5647 11.2944 12.4462C11.2944 12.4067 11.2944 11.4192 10.6229 11.4192C10.5044 11.4192 10.3859 11.3007 10.3859 11.1822C10.3859 11.0637 10.5044 10.9452 10.6229 10.9452C11.5314 10.9452 11.7684 11.9327 11.7684 12.4462C11.7684 12.5647 11.6499 12.6832 11.5314 12.6832Z" fill="white"/>
</svg>
