<svg width="26" height="26" viewBox="0 0 26 26" fill="none" xmlns="http://www.w3.org/2000/svg">
<path d="M22.127 6.48911C19.1477 4.25961 16.2932 4.32227 16.2932 4.32227L16.0014 4.65559C19.5434 5.71821 21.1895 7.28081 21.1895 7.28081C16.1218 4.49075 9.66706 4.51077 4.39608 7.28081C4.39608 7.28081 6.10454 5.63475 9.85504 4.57213L9.64678 4.32201C9.64678 4.32201 6.81304 4.25961 3.8129 6.48885C3.8129 6.48885 0.8125 11.8852 0.8125 18.5318C0.8125 18.5318 2.56282 21.5322 7.16742 21.6781C7.16742 21.6781 7.93832 20.7613 8.56336 19.9696C5.91734 19.1779 4.91712 17.5318 4.91712 17.5318C6.57956 18.5721 8.26046 19.2231 10.3553 19.6363C13.7634 20.3378 18.0027 19.6165 21.1689 17.5318C21.1689 17.5318 20.1271 19.2195 17.3976 19.9904C18.0227 20.7613 18.7728 21.6573 18.7728 21.6573C23.3774 21.5114 25.1274 18.511 25.1274 18.5321C25.1272 11.8854 22.127 6.48911 22.127 6.48911ZM9.08414 16.5943C7.91726 16.5943 6.9589 15.5733 6.9589 14.3024C7.04418 11.2586 11.1454 11.2679 11.2094 14.3024C11.2094 15.5733 10.2716 16.5943 9.08414 16.5943ZM16.6889 16.5943C15.522 16.5943 14.5636 15.5733 14.5636 14.3024C14.6572 11.2645 18.7073 11.2632 18.8141 14.3024C18.8141 15.5733 17.8766 16.5943 16.6889 16.5943Z" fill="white"/>
</svg>
