<svg width="357" height="54" viewBox="0 0 357 54" fill="none" xmlns="http://www.w3.org/2000/svg">
<path fill-rule="evenodd" clip-rule="evenodd" d="M16.5124 10.0188L19.4809 0L22.4494 10.0188H16.5124ZM12.4307 25.2324C14.1726 25.2324 15.5848 23.8203 15.5848 22.0784C15.5848 20.3364 14.1726 18.9243 12.4307 18.9243C11.8866 18.9243 11.3747 19.0621 10.9279 19.3047C11.669 19.3876 12.2452 20.0164 12.2452 20.7796C12.2452 21.5994 11.5807 22.2639 10.7609 22.2639C10.1261 22.2639 9.5843 21.8653 9.37222 21.3048C9.30981 21.5523 9.27665 21.8115 9.27665 22.0784C9.27665 23.8203 10.6888 25.2324 12.4307 25.2324ZM30.0563 22.0784C30.0563 23.8203 28.6442 25.2324 26.9022 25.2324C25.1603 25.2324 23.7482 23.8203 23.7482 22.0784C23.7482 21.8115 23.7813 21.5523 23.8438 21.3048C24.0558 21.8653 24.5976 22.2639 25.2324 22.2639C26.0522 22.2639 26.7167 21.5994 26.7167 20.7796C26.7167 20.0164 26.1406 19.3877 25.3994 19.3047C25.8462 19.0621 26.3581 18.9243 26.9022 18.9243C28.6442 18.9243 30.0563 20.3364 30.0563 22.0784ZM19.4809 53.8044C25.1166 53.8044 29.6852 53.4722 29.6852 53.0623C29.6852 52.6524 25.1166 52.3202 19.4809 52.3202C13.8453 52.3202 9.27665 52.6524 9.27665 53.0623C9.27665 53.4722 13.8453 53.8044 19.4809 53.8044ZM16.6979 27.0878C16.6979 28.7272 18.027 30.0563 19.6665 30.0563C21.3059 30.0563 22.635 28.7272 22.635 27.0878H16.6979ZM14.4715 38.2197C10.9877 38.2197 8.16342 41.0439 8.16342 44.5278C8.16342 48.0117 10.9877 50.8359 14.4715 50.8359H24.4903C27.9742 50.8359 30.7984 48.0117 30.7984 44.5278C30.7984 41.0439 27.9742 38.2197 24.4903 38.2197H14.4715ZM14.1005 44.8989C15.3301 44.8989 16.3269 43.9021 16.3269 42.6725C16.3269 41.4429 15.3301 40.4461 14.1005 40.4461C12.8709 40.4461 11.8741 41.4429 11.8741 42.6725C11.8741 43.9021 12.8709 44.8989 14.1005 44.8989ZM19.6665 44.8989C18.4369 44.8989 17.4401 43.9021 17.4401 42.6725C17.4401 41.4429 18.4369 40.4461 19.6665 40.4461C20.8961 40.4461 21.8929 41.4429 21.8929 42.6725C21.8929 43.9021 20.8961 44.8989 19.6665 44.8989ZM25.2324 44.8989C26.4621 44.8989 27.4588 43.9021 27.4588 42.6725C27.4588 41.4429 26.4621 40.4461 25.2324 40.4461C24.0028 40.4461 23.0061 41.4429 23.0061 42.6725C23.0061 43.9021 24.0028 44.8989 25.2324 44.8989ZM7.4524 38.5634C6.69607 38.3297 5.89345 38.7533 5.6597 39.5097L3.75216 45.6819C3.51841 46.4383 3.94206 47.2409 4.69839 47.4746C5.45472 47.7084 6.25734 47.2847 6.49109 46.5284L8.39863 40.3561C8.63237 39.5998 8.20873 38.7972 7.4524 38.5634ZM33.5895 39.5097C33.3558 38.7533 32.5532 38.3297 31.7968 38.5634C31.0405 38.7972 30.6168 39.5998 30.8506 40.3561L32.7581 46.5284C32.9919 47.2847 33.7945 47.7084 34.5508 47.4746C35.3072 47.2409 35.7308 46.4383 35.4971 45.6819L33.5895 39.5097ZM12.2036 10.0188H26.7901L24.2193 14.4715H14.7744L12.2036 10.0188ZM30.5432 10.0188L27.9716 14.473C31.5949 14.5484 34.509 17.5093 34.509 21.1507V25.6035C34.509 29.2923 31.5187 32.2827 27.8299 32.2827H11.503C7.81419 32.2827 4.82382 29.2923 4.82382 25.6035V21.1507C4.82382 17.6207 7.5623 14.7302 11.0307 14.488L8.45066 10.0192C3.7758 10.0641 0 13.8678 0 18.5533V28.2009C0 32.9144 3.82103 36.7354 8.5345 36.7354H30.7984C35.5119 36.7354 39.3329 32.9144 39.3329 28.2009V18.5533C39.3329 13.8398 35.5119 10.0188 30.7984 10.0188H30.5432Z" fill="white"/>
<path d="M81.144 26.1645C81.144 27.3174 80.7816 28.3056 80.057 29.1291C80.7816 29.9526 81.144 30.9243 81.144 32.0443C81.144 33.296 80.6828 34.3666 79.7605 35.256C78.8382 36.1454 77.7347 36.5901 76.45 36.5901H58.0199C57.7235 36.5901 57.4764 36.4912 57.2788 36.2936C57.0811 36.063 56.9823 35.7995 56.9823 35.503V30.7596L60.2434 27.4491H76.45C76.8123 27.4491 77.1253 27.3338 77.3888 27.1033C77.6523 26.8397 77.7841 26.5268 77.7841 26.1645C77.7841 25.8351 77.6523 25.5551 77.3888 25.3245C77.1253 25.061 76.8123 24.9292 76.45 24.9292H56.9823L60.4904 21.6187H76.45C77.7347 21.6187 78.8382 22.0634 79.7605 22.9528C80.6828 23.8422 81.144 24.9127 81.144 26.1645ZM76.45 33.329C76.8123 33.329 77.1253 33.2137 77.3888 32.9831C77.6523 32.7196 77.7841 32.4066 77.7841 32.0443C77.7841 31.682 77.6523 31.3855 77.3888 31.1549C77.1253 30.8914 76.8123 30.7596 76.45 30.7596H60.2434V33.329H76.45ZM102.331 32.736C103.813 32.6372 105.065 32.0443 106.086 30.9573C107.14 29.8702 107.668 28.5691 107.668 27.0538C107.668 25.4727 107.108 24.1386 105.988 23.0516C104.868 21.9316 103.533 21.3716 101.985 21.3716H86.8163L83.5552 24.5833V24.6821H101.985C102.644 24.6821 103.204 24.9127 103.665 25.3739C104.159 25.8351 104.406 26.395 104.406 27.0538C104.406 27.7456 104.093 28.4044 103.468 29.0303C103.237 29.2938 102.908 29.4255 102.479 29.4255H86.8163L83.5552 32.6372V36.5901H86.8163V32.736H97.6372L101.639 36.5901H106.383L102.331 32.736ZM128.163 36.5901C129.843 36.5901 131.259 36.0136 132.412 34.8607C133.598 33.6748 134.191 32.2584 134.191 30.6114V27.6468C134.191 25.9998 133.598 24.5833 132.412 23.3975C131.259 22.2116 129.843 21.6187 128.163 21.6187H116.057C114.41 21.6187 112.994 22.2116 111.808 23.3975C110.655 24.5833 110.079 25.9998 110.079 27.6468V30.6114C110.079 32.2584 110.655 33.6748 111.808 34.8607C112.994 36.0136 114.41 36.5901 116.057 36.5901H128.163ZM128.163 24.9292C128.921 24.9292 129.563 25.1927 130.09 25.7198C130.65 26.2468 130.93 26.8891 130.93 27.6468V30.6114C130.93 31.369 130.65 32.0114 130.09 32.5384C129.563 33.0654 128.921 33.329 128.163 33.329H116.057C115.3 33.329 114.657 33.0654 114.13 32.5384C113.603 32.0114 113.34 31.369 113.34 30.6114V27.6468C113.34 26.8891 113.603 26.2468 114.13 25.7198C114.657 25.1927 115.3 24.9292 116.057 24.9292H128.163ZM160.715 36.3924H156.021L149.202 30.5126H139.814V36.5901H136.602V23.8916L139.814 20.6799V27.2515H149.004C149.037 27.2185 149.054 27.2021 149.054 27.2021L156.021 21.4211H160.715L151.821 28.7832L160.715 36.3924ZM183.631 24.8798L187.287 21.6187H166.782L163.126 24.8798H183.631ZM183.631 30.7102L187.287 27.4491H166.782L163.126 30.7102H183.631ZM183.631 36.5901L187.287 33.329H166.782L163.126 36.5901H183.631ZM210.649 24.0892V33.329L192.861 21.6187H190.736C190.44 21.6187 190.193 21.734 189.995 21.9646C189.797 22.1622 189.699 22.4093 189.699 22.7057V36.5901H192.861V24.8798L210.649 36.5901H213.811V20.8775L210.649 24.0892ZM242.35 32.736C243.833 32.6372 245.084 32.0443 246.106 30.9573C247.16 29.8702 247.687 28.5691 247.687 27.0538C247.687 25.4727 247.127 24.1386 246.007 23.0516C244.887 21.9316 243.553 21.3716 242.005 21.3716H226.836L223.574 24.5833V24.6821H242.005C242.663 24.6821 243.223 24.9127 243.684 25.3739C244.179 25.8351 244.426 26.395 244.426 27.0538C244.426 27.7456 244.113 28.4044 243.487 29.0303C243.256 29.2938 242.927 29.4255 242.499 29.4255H226.836L223.574 32.6372V36.5901H226.836V32.736H237.656L241.659 36.5901H246.402L242.35 32.736ZM268.182 36.5901C269.862 36.5901 271.279 36.0136 272.431 34.8607C273.617 33.6748 274.21 32.2584 274.21 30.6114V27.6468C274.21 25.9998 273.617 24.5833 272.431 23.3975C271.279 22.2116 269.862 21.6187 268.182 21.6187H256.077C254.43 21.6187 253.013 22.2116 251.827 23.3975C250.674 24.5833 250.098 25.9998 250.098 27.6468V30.6114C250.098 32.2584 250.674 33.6748 251.827 34.8607C253.013 36.0136 254.43 36.5901 256.077 36.5901H268.182ZM268.182 24.9292C268.94 24.9292 269.582 25.1927 270.109 25.7198C270.669 26.2468 270.949 26.8891 270.949 27.6468V30.6114C270.949 31.369 270.669 32.0114 270.109 32.5384C269.582 33.0654 268.94 33.329 268.182 33.329H256.077C255.319 33.329 254.677 33.0654 254.15 32.5384C253.623 32.0114 253.359 31.369 253.359 30.6114V27.6468C253.359 26.8891 253.623 26.2468 254.15 25.7198C254.677 25.1927 255.319 24.9292 256.077 24.9292H268.182ZM300.783 26.1645C300.783 27.3174 300.421 28.3056 299.696 29.1291C300.421 29.9526 300.783 30.9243 300.783 32.0443C300.783 33.296 300.322 34.3666 299.4 35.256C298.477 36.1454 297.374 36.5901 296.089 36.5901H277.659C277.363 36.5901 277.116 36.4912 276.918 36.2936C276.72 36.063 276.621 35.7995 276.621 35.503V30.7596L279.883 27.4491H296.089C296.452 27.4491 296.764 27.3338 297.028 27.1033C297.291 26.8397 297.423 26.5268 297.423 26.1645C297.423 25.8351 297.291 25.5551 297.028 25.3245C296.764 25.061 296.452 24.9292 296.089 24.9292H276.621L280.13 21.6187H296.089C297.374 21.6187 298.477 22.0634 299.4 22.9528C300.322 23.8422 300.783 24.9127 300.783 26.1645ZM296.089 33.329C296.452 33.329 296.764 33.2137 297.028 32.9831C297.291 32.7196 297.423 32.4066 297.423 32.0443C297.423 31.682 297.291 31.3855 297.028 31.1549C296.764 30.8914 296.452 30.7596 296.089 30.7596H279.883V33.329H296.089ZM321.279 36.5901C322.959 36.5901 324.375 36.0136 325.528 34.8607C326.714 33.6748 327.307 32.2584 327.307 30.6114V27.6468C327.307 25.9998 326.714 24.5833 325.528 23.3975C324.375 22.2116 322.959 21.6187 321.279 21.6187H309.173C307.526 21.6187 306.11 22.2116 304.924 23.3975C303.771 24.5833 303.194 25.9998 303.194 27.6468V30.6114C303.194 32.2584 303.771 33.6748 304.924 34.8607C306.11 36.0136 307.526 36.5901 309.173 36.5901H321.279ZM321.279 24.9292C322.036 24.9292 322.679 25.1927 323.206 25.7198C323.766 26.2468 324.046 26.8891 324.046 27.6468V30.6114C324.046 31.369 323.766 32.0114 323.206 32.5384C322.679 33.0654 322.036 33.329 321.279 33.329H309.173C308.415 33.329 307.773 33.0654 307.246 32.5384C306.719 32.0114 306.455 31.369 306.455 30.6114V27.6468C306.455 26.8891 306.719 26.2468 307.246 25.7198C307.773 25.1927 308.415 24.9292 309.173 24.9292H321.279ZM353.83 21.5693L350.668 24.8798H343.454V36.5901H340.193V24.8798H329.718L332.93 21.5693H353.83Z" fill="white"/>
</svg>
